<svg xmlns="http://www.w3.org/2000/svg" width="192" height="192" viewBox="0 0 192 192">
  <rect width="192" height="192" rx="40" fill="#EA580C"/>
  <path d="M96 38C68 38 48 58 48 78v8c0 4 2 7 5 9h86c3-2 5-5 5-9v-8C144 58 124 38 96 38z" fill="white" opacity="0.9"/>
  <path d="M56 74h80v6c0 3-2 6-5 7H61c-3-1-5-4-5-7v-6z" fill="#EA580C" opacity="0.5"/>
  <rect x="44" y="110" width="104" height="22" rx="6" fill="white" opacity="0.9"/>
  <circle cx="66" cy="142" r="12" fill="white" opacity="0.6" stroke="white" stroke-width="3"/>
  <circle cx="126" cy="142" r="12" fill="white" opacity="0.6" stroke="white" stroke-width="3"/>
  <path d="M84 110v-6a12 12 0 0124 0v6" stroke="white" stroke-width="4" fill="none" stroke-linecap="round"/>
  <rect x="44" y="160" width="13" height="10" fill="white" opacity="0.3"/>
  <rect x="70" y="160" width="13" height="10" fill="white" opacity="0.3"/>
  <rect x="96" y="160" width="13" height="10" fill="white" opacity="0.3"/>
  <rect x="122" y="160" width="13" height="10" fill="white" opacity="0.3"/>
  <rect x="57" y="170" width="13" height="10" fill="white" opacity="0.3"/>
  <rect x="83" y="170" width="13" height="10" fill="white" opacity="0.3"/>
  <rect x="109" y="170" width="13" height="10" fill="white" opacity="0.3"/>
  <rect x="135" y="170" width="13" height="10" fill="white" opacity="0.3"/>
</svg>