<svg xmlns="http://www.w3.org/2000/svg" width="192" height="192" viewBox="0 0 192 192">
  <rect width="192" height="192" rx="42" fill="#EA580C"/>
  <line x1="10" y1="38" x2="38" y2="38" stroke="white" stroke-width="3.5" stroke-linecap="round" opacity="0.85"/>
  <line x1="14" y1="54" x2="36" y2="54" stroke="white" stroke-width="3" stroke-linecap="round" opacity="0.7"/>
  <line x1="8" y1="70" x2="40" y2="70" stroke="white" stroke-width="3.5" stroke-linecap="round" opacity="0.85"/>
  <line x1="16" y1="86" x2="34" y2="86" stroke="white" stroke-width="3" stroke-linecap="round" opacity="0.65"/>
  <line x1="10" y1="102" x2="38" y2="102" stroke="white" stroke-width="3.5" stroke-linecap="round" opacity="0.8"/>
  <g transform="translate(28, 20)">
    <rect x="12" y="10" width="5" height="95" rx="2.5" fill="white" opacity="0.9"/>
    <g transform="translate(17, 10)">
      <path d="M0 0 Q45 12 90 0 Q90 28 90 55 Q45 43 0 55 Z" fill="white" opacity="0.95"/>
      <clipPath id="f"><path d="M0 0 Q45 12 90 0 Q90 28 90 55 Q45 43 0 55 Z"/></clipPath>
      <g clip-path="url(#f)">
        <rect x="0" y="0" width="18" height="14" fill="#EA580C" opacity="0.7"/>
        <rect x="36" y="0" width="18" height="14" fill="#EA580C" opacity="0.7"/>
        <rect x="72" y="0" width="18" height="14" fill="#EA580C" opacity="0.7"/>
        <rect x="18" y="14" width="18" height="14" fill="#EA580C" opacity="0.7"/>
        <rect x="54" y="14" width="18" height="14" fill="#EA580C" opacity="0.7"/>
        <rect x="0" y="28" width="18" height="14" fill="#EA580C" opacity="0.7"/>
        <rect x="36" y="28" width="18" height="14" fill="#EA580C" opacity="0.7"/>
        <rect x="72" y="28" width="18" height="14" fill="#EA580C" opacity="0.7"/>
        <rect x="18" y="42" width="18" height="13" fill="#EA580C" opacity="0.7"/>
        <rect x="54" y="42" width="18" height="13" fill="#EA580C" opacity="0.7"/>
      </g>
    </g>
  </g>
  <text x="96" y="158" font-family="Arial,sans-serif" font-size="28" font-weight="bold" fill="white" text-anchor="middle" opacity="0.95">AMIGO</text>
</svg>